<svg width="783" height="808" viewBox="0 0 783 808" fill="none" xmlns="http://www.w3.org/2000/svg">
<path d="M698.257 179.114V198.1L713.064 203.465C759.716 218.351 788.72 264.837 781.583 313.284C774.356 362.343 732.261 398.691 682.672 398.691L420.157 398.1L506.74 143.959C523.939 98.6882 571.369 72.5089 618.841 82.0831C665.035 91.3995 698.257 131.99 698.257 179.114Z" fill="#88D66C"/>
<path d="M274.186 48.5547L292.242 54.4215L301.921 41.9969C330.495 2.2282 383.668 -10.9912 427.538 10.7673C471.962 32.8008 493.523 84.0678 478.2 131.229L396.516 380.714L181.569 219.834C143.829 189.487 133.588 136.289 157.363 94.0992C180.498 53.045 229.368 33.9925 274.186 48.5547Z" fill="#88D66C"/>
<path d="M705.317 622.939L687.261 628.805L686.734 644.546C686.992 693.515 651.745 735.464 603.464 743.647C554.573 751.934 506.995 723.131 491.672 675.97L411.112 426.12L679.57 429.932C727.94 432.3 767.494 469.318 773.059 517.425C778.473 564.238 750.135 608.376 705.317 622.939Z" fill="#88D66C"/>
<path d="M285.539 766.762L274.38 751.403L259.247 755.766C212.755 771.144 161.967 750.584 139.264 707.195C116.275 663.258 128.966 609.108 169.084 579.961L381.811 426.137L461.144 682.633C473.838 729.367 450.855 778.425 406.822 798.583C363.974 818.198 313.238 804.887 285.539 766.762Z" fill="#88D66C"/>
<path d="M18.9892 411.872L30.1485 396.513L21.3229 383.468C-7.6696 344.004 -3.81055 289.348 30.4395 254.349C65.1226 218.907 120.543 214.244 160.661 243.391L372.693 398.172L153.266 552.884C112.741 579.399 58.9825 572.701 26.2043 537.051C-5.69143 502.362 -8.7097 449.996 18.9892 411.872Z" fill="#88D66C"/>
</svg>
